<svg xmlns="http://www.w3.org/2000/svg"  viewBox="0 0 48 48" width="48px" height="48px" baseProfile="basic"><path fill="#f414ca" d="M20.9,13.981c-2.2,0-4,1.8-4,4v16c0,0.263,0.029,0.519,0.078,0.769H27 c2.383,0,4.362-1.803,4.622-4.094c0.082-0.203,0.128-1.911,0.128-2.142V15.48c0-0.15-0.019-0.921-0.055-1.498H20.9z" opacity=".4"/><path fill="#f414ca" d="M20.9,13.981c-2.2,0-4,1.8-4,4v16c0,0.537,0.11,1.049,0.305,1.519H27 c2.566,0,4.725-1.807,5.245-4.188c0.164-0.405,0.255-1.839,0.255-2.303V14.987c0-0.204-0.018-0.596-0.052-1.005H20.9z" opacity=".3"/><path fill="#f414ca" d="M20.9,13.981c-2.2,0-4,1.8-4,4v16c0,0.842,0.267,1.622,0.715,2.269H27 c2.75,0,5.087-1.81,5.867-4.283c0.247-0.608,0.383-1.768,0.383-2.463V14.493c0-0.15-0.009-0.328-0.022-0.512H20.9z" opacity=".2"/><path fill="#f414ca" d="M34,25.675V14c0-0.006-0.001-0.012-0.001-0.019H20.9c-2.2,0-4,1.8-4,4v16 c0,1.209,0.555,2.284,1.409,3.019H27c3.86,0,7-3.141,7-7v-3.657C33.984,26.117,33.986,25.894,34,25.675z" opacity=".1"/><linearGradient id="UMSLRlTpmk8VpUySucDBda" x1="25.408" x2="-3.966" y1="29.2" y2="-.174" gradientUnits="userSpaceOnUse"><stop offset="0" stop-color="#ffa4f9"/><stop offset=".447" stop-color="#ff5dde"/><stop offset="1" stop-color="#ff01bb"/></linearGradient><path fill="url(#UMSLRlTpmk8VpUySucDBda)" d="M31,14c0-2.2-1.8-4-4-4h-4c-0.7,0-1.1-0.8-0.7-1.4c0.6-1,0.9-2.2,0.6-3.5	c-0.4-2-1.9-3.6-3.8-4C15.8,0.4,13,2.9,13,6c0,1,0.3,1.8,0.7,2.6c0.4,0.6,0,1.4-0.8,1.4h-4c-2.2,0-4,1.8-4,4v3	c0,0.7,0.8,1.1,1.4,0.7c1-0.6,2.2-0.9,3.5-0.6c2,0.4,3.6,1.9,4,3.8C14.5,24.1,12,27,8.9,27c-1,0-1.8-0.3-2.6-0.7	C5.8,25.9,5,26.3,5,27v3c0,2.2,1.8,4,4,4h18c2.2,0,4-1.8,4-4V14z"/><path fill="#f414ca" d="M27,34c2.2,0,4-1.8,4-4V14c0-0.144-0.032-0.279-0.047-0.419H20.9 c-2.42,0-4.4,1.98-4.4,4.4v16c0.007,0.007,0.011,0.011,0.019,0.019H27z" opacity=".4"/><path fill="#f414ca" d="M27,34c2.2,0,4-1.8,4-4V14c0-0.281-0.035-0.554-0.092-0.819H20.9 c-2.64,0-4.8,2.16-4.8,4.8v16.017c0.001,0,0.001,0.001,0.002,0.001H27z" opacity=".3"/><path fill="#f414ca" d="M27,34c2.2,0,4-1.8,4-4V14c0-0.429-0.091-0.832-0.219-1.219H20.9 c-2.86,0-5.2,2.34-5.2,5.2v16c0.007,0.007,0.011,0.011,0.019,0.019H27z" opacity=".2"/><path fill="#f414ca" d="M27,34c2.2,0,4-1.8,4-4V14c0-0.578-0.132-1.124-0.359-1.619H20.9 c-3.093,0-5.6,2.507-5.6,5.6v16c0.007,0.007,0.011,0.011,0.019,0.019H27z" opacity=".1"/><path fill="#f414ca" d="M27,34c2.2,0,4-1.8,4-4V14c0-0.743-0.228-1.424-0.588-2.019H20.9c-3.314,0-6,2.686-6,6 v16c0.007,0.007,0.011,0.011,0.019,0.019H27z" opacity=".05"/><linearGradient id="UMSLRlTpmk8VpUySucDBdb" x1="19.213" x2="41.389" y1="16.98" y2="30.743" gradientTransform="rotate(180 27.95 24.49)" gradientUnits="userSpaceOnUse"><stop offset="0" stop-color="#ffbe02" stop-opacity=".4"/><stop offset="1" stop-color="#ffe669" stop-opacity=".4"/></linearGradient><path fill="url(#UMSLRlTpmk8VpUySucDBdb)" d="M16.9,33.982c0,2.2,1.8,4,4,4h4	c0.7,0,1.1,0.8,0.7,1.4c-0.6,1-0.9,2.2-0.6,3.5c0.4,2,1.9,3.6,3.8,4c3.3,0.7,6.1-1.8,6.1-4.9c0-1-0.3-1.8-0.7-2.6	c-0.4-0.6,0-1.4,0.8-1.4h4c2.2,0,4-1.8,4-4v-3c0-0.7-0.8-1.1-1.4-0.7c-1,0.6-2.2,0.9-3.5,0.6c-2-0.4-3.6-1.9-4-3.8	c-0.7-3.2,1.8-6.1,4.9-6.1c1,0,1.8,0.3,2.6,0.7c0.5,0.4,1.3,0,1.3-0.7v-3c0-2.2-1.8-4-4-4h-18c-2.2,0-4,1.8-4,4V33.982z"/><linearGradient id="UMSLRlTpmk8VpUySucDBdc" x1="25.149" x2="42.364" y1="20.567" y2="40.186" gradientUnits="userSpaceOnUse"><stop offset="0" stop-color="#ffeab0" stop-opacity=".1"/><stop offset="1" stop-color="#ffbe02" stop-opacity=".3"/></linearGradient><path fill="url(#UMSLRlTpmk8VpUySucDBdc)" d="M38.9,14.481c1.93,0,3.5,1.57,3.5,3.5v3	c0,0.234-0.2,0.359-0.345,0.359c-0.054,0-0.101-0.016-0.142-0.049c-0.027-0.022-0.057-0.041-0.089-0.057	c-0.745-0.372-1.662-0.753-2.824-0.753c-1.669,0-3.235,0.757-4.298,2.078c-1.051,1.306-1.448,2.993-1.091,4.625	c0.442,2.098,2.165,3.742,4.377,4.184c0.375,0.087,0.757,0.13,1.134,0.13c0.943,0,1.863-0.265,2.756-0.802	c0.075-0.05,0.155-0.075,0.239-0.075c0.189,0,0.384,0.134,0.384,0.359v3c0,1.93-1.57,3.5-3.5,3.5h-4	c-0.561,0-1.044,0.279-1.294,0.745c-0.235,0.44-0.212,0.974,0.059,1.403c0.331,0.666,0.635,1.412,0.635,2.352	c0,2.492-2.013,4.519-4.487,4.519c-0.333,0-0.672-0.036-1.01-0.108c-1.68-0.354-3.052-1.804-3.416-3.623	c-0.307-1.33,0.125-2.436,0.529-3.11c0.293-0.44,0.322-1,0.076-1.461c-0.24-0.449-0.686-0.717-1.192-0.717h-4	c-1.93,0-3.5-1.57-3.5-3.5v-16c0-1.93,1.57-3.5,3.5-3.5H38.9 M38.9,13.981h-18c-2.2,0-4,1.8-4,4v16c0,2.2,1.8,4,4,4h4	c0.7,0,1.1,0.8,0.7,1.4c-0.6,1-0.9,2.2-0.6,3.5c0.4,2,1.9,3.6,3.8,4C29.178,46.962,29.551,47,29.913,47	c2.793,0,4.987-2.274,4.987-5.019c0-1-0.3-1.8-0.7-2.6c-0.4-0.6,0-1.4,0.8-1.4h4c2.2,0,4-1.8,4-4v-3	c0-0.509-0.422-0.859-0.884-0.859c-0.173,0-0.352,0.05-0.516,0.159c-0.732,0.439-1.571,0.718-2.478,0.718	c-0.332,0-0.673-0.037-1.022-0.118c-2-0.4-3.6-1.9-4-3.8c-0.7-3.2,1.8-6.1,4.9-6.1c1,0,1.8,0.3,2.6,0.7	c0.137,0.109,0.296,0.159,0.455,0.159c0.423,0,0.845-0.35,0.845-0.859v-3C42.9,15.781,41.1,13.981,38.9,13.981L38.9,13.981z"/></svg>